# xmcd
#
# Track frame offsets: 
#        182
#        23685
#        48500
#        63960
#        89297
#        107825
#        131610
#        148040
#
# Disc length: 2339 seconds
#
# Revision: 1
# Processed by: cddbd v1.5.2PL0 Copyright (c) Steve Scherf et al.
# Submitted via: ExactAudioCopy v1.0b3
#
DISCID=69092108
DTITLE=DDD - DDD
DYEAR=1991
DGENRE=Blues
TTITLE0=Blues Lazy Lover
TTITLE1=Rajstopy
TTITLE2=Off The Bay
TTITLE3=Call Me Lola
TTITLE4=Grils Attend The Bars
TTITLE5=Myś
TTITLE6=Kiki Bing
TTITLE7=Let There Be Music
EXTD=
EXTT0=
EXTT1=
EXTT2=
EXTT3=
EXTT4=
EXTT5=
EXTT6=
EXTT7=
PLAYORDER=
